<?xml version="1.0" encoding="UTF-8"?>
<svg id="Layer_1" xmlns="http://www.w3.org/2000/svg" version="1.1" viewBox="0 0 186.3 73.3">
  <!-- Generator: Adobe Illustrator 29.8.2, SVG Export Plug-In . SVG Version: 2.1.1 Build 3)  -->
  <defs>
    <style>
      .st0 {
        fill: #3e3f3a;
      }

      .st1 {
        fill: #e60112;
      }

      .st2 {
        fill: #e60113;
      }

      .st3 {
        fill: #e50112;
      }

      .st4 {
        fill: #41423d;
      }

      .st5 {
        fill: #3d3e39;
      }
    </style>
  </defs>
  <path class="st2" d="M0,40.7c.4-.1.3-.5.3-.7.2-.9.7-1.5,1.7-1.3s1.2.9,1.1,1.8-.2,1.7-.3,2.5c-.3,8.8,4.5,15.9,12.9,19.3,5.3,2.1,11.1,2.9,16.7,2.1.3,0,.7,0,1-.1,1-.2,1.9,0,2,1.1s-.7,1.5-1.7,1.6c-6,.9-12.1.4-17.8-1.6-6.4-2.3-11.3-6.3-14.2-12.6-.9-1.9-1.1-4-1.8-6v-6.1Z"/>
  <path class="st2" d="M87.4,9c-5.4,2.6-11.1,3.1-16.9,2.8h-.4c-1,0-1.8-.3-1.8-1.5s.9-1.4,1.9-1.4c2.5.1,5,0,7.5-.2,4.9-.5,9.5-2.5,13.2-5.7,1.2-1,2.3-2,3.6-3.1-2.8,10.9-7.4,17.2-18.7,18-5.4.4-10.8-.3-16.2-.4-6-.1-11.8.4-17.4,2.7-4.7,1.8-9,4.8-12.3,8.7-1.5,1.7-2.5,3.8-2.9,6-.3,1.3.2,2.7,1.3,3.5,1.2.8,2.7.8,3.9,0,1.3-.8,2.6-1.7,3.7-2.8,4.5-4,9.2-7.7,15-9.7.7-.2,1.4-.7,1.1-1.7s-1.1-.8-1.8-.6c-6,1.3-10.9,4.5-15.2,8.6-.7.6-1.3,1.3-1.9,2s-1.4,1-2.2.3c-.6-.5-.7-1.3-.2-1.9,0,0,.1-.1.2-.2,5-5.6,11-9.8,18.4-11.5.7-.2,1.5-.3,2.2-.2,1.4,0,2.7,1,3.2,2.4.5,1.4.2,2.9-.8,4-.5.7-1.3,1.2-2.1,1.4-4.8,1.8-9.2,4.6-12.9,8.1-1.7,1.7-3.6,3.1-5.7,4.3-2.1,1.2-4.7,1-6.7-.5-2.1-1.5-2.7-3.7-2.4-6.2.2-1.5.7-2.9,1.4-4.2,1.5-2.7,3.5-5,5.9-6.9,6.4-5.2,14.4-8.2,22.6-8.5,4.9-.3,9.9.1,14.8.3,3.8.1,7.6.3,11.3-.8,3-.8,5.5-2.7,7.2-5.3"/>
  <path class="st1" d="M85.7,17.1c-3.1,9.5-7.9,17.4-17.3,21.8-.4.2-.9.4-1.3.5-.7.2-1.4-.1-1.6-.8-.3-.6,0-1.4.6-1.8,0,0,0,0,0,0,.3-.2.7-.3,1-.5,4.7-2.2,8.7-5.7,11.4-10.2l-2.7,1.5c-4.8,2.8-10.1,4.1-15.6,5.1-5.7,1-11,3.6-15.3,7.5-2.9,2.7-6.1,4.9-9.6,6.6-4.8,2.3-9.5,2.2-13.8-1.2-4-3.2-4.8-7.7-3.9-12.5,1.1-6.5,5-11.4,10.2-15.3,7.8-5.9,17.3-9.2,27.1-9.4,2.9,0,5.7,0,8.6,0,1,0,1.9.3,1.8,1.5s-1,1.4-2,1.4c-6.4-.4-12.8-.3-19,1.5-7,2-13.4,5.3-18.4,10.6-3.5,3.7-5.8,8-5.6,13.2,0,4.9,4,8.9,8.9,8.9,1.1,0,2.1-.2,3.1-.6,3.3-1.1,6.3-3,8.9-5.4,6-5.6,13.5-9.2,21.6-10.3,7.3-1.2,13.5-4.6,19.1-9.3,1.2-1,2.4-1.9,3.8-3"/>
  <path class="st2" d="M63.2,46c0,1.8-1.2,4.1-2.7,6.1-3.9,5.2-9.1,8.5-14.9,11.2-1.6.8-3.4,1.4-5.1,2-.9.4-1.8.3-2.2-.8s.3-1.6,1.3-1.9c5-1.7,9.7-4.2,13.9-7.5,2.4-1.8,4.3-4,5.8-6.6.7-1.1,1-2.4,1-3.7,0-2.1-1.8-3.8-4-3.8-.3,0-.5,0-.8,0-1.4.3-2.7,1-3.9,1.9-2.6,1.9-5.1,4-7.7,5.9-3.7,2.9-8,4.9-12.7,5.7-1.9.3-2.8,0-2.8-1.1,0-1.7,1.3-1.5,2.4-1.7,4.5-.6,8.3-2.7,11.9-5.4,2.4-1.8,4.7-3.7,7.1-5.5,1.3-1,2.7-1.8,4.3-2.4,4.6-1.5,9.1,1.8,9,7.4"/>
  <path class="st3" d="M21.8,19c-1.1,1.4-2.1,2.7-3.2,4.1-3.2,4.3-5.2,9.1-5,14.6.2,6.5,3.8,12.2,10.4,13.8,1,.2,1.8.7,1.5,1.8-.3,1.3-1.4,1.2-2.4.9-6.5-1.7-11.3-7.3-12.2-14-.6-4.4,0-8.8,1.8-12.9.3-.5.5-1,.5-1.6-1.4.8-2.6,1.8-3.8,3-1.8,1.7-3.3,3.8-4.4,6-.5.9-1,1.9-2.2,1.3s-.8-1.7-.3-2.6c3.1-5.9,8.2-10.5,14.5-12.9,1.5-.6,3-1.2,4.5-1.7l.2.2"/>
  <path class="st2" d="M32,73.3h-.9c-.9,0-1.6-.3-1.7-1.3s.6-1.5,1.6-1.5c2.8-.1,5.5-.5,8.2-1.2,8.9-2.2,16.6-6.3,22.7-13.3,3.2-3.7,5.6-7.8,5.4-12.9,0-.7.4-1.4,1.2-1.5,0,0,.1,0,.2,0,1,0,1.4.6,1.5,1.5.1,2.3-.3,4.6-1.1,6.7-2.2,5.7-6.2,10-10.9,13.6-7.5,5.7-16.6,9.1-26,9.8"/>
  <path class="st0" d="M96.2,60.7h-4.4c-1.4.1-2.6-.9-2.7-2.2,0-.3,0-.6,0-.9.7-3.9,1.4-7.8,2.1-11.7.2-1.9,1.9-3.3,3.8-3.2,2.7,0,5.4,0,8.2,0,2.4,0,3.6,2,2.6,4-.5,1.1-1.7.4-2.5.4s-.4-.7-.3-1c.2-.9-.1-1.2-1-1.2h-6.3c-.6-.1-1.2.3-1.4.9,0,0,0,0,0,.1-.7,3.8-1.3,7.6-2,11.5-.1.8.2,1,.9,1h6.9c.6,0,1.2-.3,1.3-1,0,0,0,0,0,0,.2-1.3.4-2.6.7-3.9.2-.9-.2-1.2-1.1-1.2h-4.5c-.4,0-1.1.3-.9-.6.1-.6-.2-1.6.8-1.7,2.2,0,4.5,0,6.8,0,1.2,0,2.1,1.2,2.1,2.4,0,.1,0,.2,0,.3-.2,1.7-.5,3.4-.9,5.1-.4,1.6-1.9,2.7-3.5,2.7h-4.5"/>
  <path class="st5" d="M105.9,35.4c.8-4.4,1.5-8.5,2.2-12.5.1-1,1-1.6,2-1.5.2,0,.3,0,.5.2.5.2.3.5.2.8-.9,5-1.8,9.9-2.6,14.9-.2,1.3-1.2,2.2-2.5,2.4-1.3.2-1.8-.8-2.3-1.8-1.8-3.9-3.6-7.8-5.7-12-.6,3.4-1.1,6.3-1.6,9.2-.2,1.2-.5,2.5-.6,3.7-.1.8-.4,1-1.2,1q-1.7,0-1.4-1.7c.8-4.5,1.6-9,2.4-13.5,0-.9.5-1.7,1.2-2.3.8-.8,2.2-.8,3,0,.2.2.4.5.5.8,1.9,4,3.8,8,5.9,12.4"/>
  <path class="st2" d="M27.7,61.2c-2.2,0-4.3-.3-6.4-.8-.9-.2-1.6-.7-1.4-1.7s1-1.3,1.9-1.1c11.4,2.4,20.8-1.9,29.1-9.1,1.1-1,2.1-2.1,3.2-3.2.7-.7,1.5-.9,2.2-.2s.5,1.4-.1,2.1c-7.6,8.6-16.9,13.6-28.6,13.9"/>
  <path class="st0" d="M157.3,26c-2.1,0-4.1,0-6.2,0s-.9,1.1-1,1.8.6.5,1,.5h4.6c.6,0,1.3-.2,1.3.8s-.1,1.6-1.3,1.4c-.6,0-1.2,0-1.8,0-5.9-.3-6.1,1.3-6.8,6-.3,1.3.4,2.7,1.8,3,.3,0,.5,0,.8,0h7.3c.7,0,1-.2,1.1-.9.5-3.3,1.2-6.5,1.7-9.8.3-1.3-.5-2.6-1.8-2.9-.2,0-.4,0-.7,0M156,35.6c-.2,1.4-.7,1.9-2.1,1.7-1,0-2.1,0-3.1,0-.3,0-.8,0-.9-.3-.4-1.2.2-2.4.4-3.5.1-.8.9-.7,1.5-.7h1.8c2.8,0,2.7,0,2.4,2.8"/>
  <path class="st0" d="M117.5,47.2c-2.3-.2-4.6-.2-6.9,0-1.1,0-.7,1.2-.8,1.8s.6.5.9.5h4.6c.6,0,1.5-.2,1.4.9,0,.8-.2,1.6-1.4,1.4s-1.2,0-1.8,0c-5.8-.3-6.1,1.2-6.8,5.9-.3,1.9.7,3.1,2.7,3.2h7.3c.6,0,.8-.2.9-.8.6-3.3,1.2-6.6,1.7-9.9.3-1.2-.4-2.4-1.6-2.7-.1,0-.2,0-.3,0M115.6,56.5c-.2,1.4-.6,2.1-2.2,1.8-.9-.1-1.8-.1-2.6,0-1.4.1-1.6-.5-1.3-1.6.7-3.2,0-2.8,3.8-2.9,2.8,0,2.7,0,2.4,2.7"/>
  <path class="st0" d="M116.9,39.6h-3.7c-1.3.1-2.5-.9-2.6-2.3,0-.3,0-.6,0-.8.4-2.5.8-5,1.3-7.5.3-1.7,1.8-3,3.6-3,1.8,0,3.6,0,5.4,0,1.4,0,2.5,1,2.6,2.4,0,.3,0,.5-.1.8-.1.7-.2,1.5-.4,2.2-.4,1.7-1.8,2.9-3.5,2.9h-3.2c-.4,0-1,.2-.8-.5s-.3-1.6.9-1.7c.9,0,1.9,0,2.8,0s1.7-1.1,1.6-2.9c0-1.2-1-.8-1.6-.8-.9,0-1.8,0-2.7,0-1.2-.1-1.8.3-2,1.6-.3,2-.7,4.1-1.1,6.1-.2,1.1.2,1.4,1.2,1.4,2.1,0,4.1,0,6.2,0s1.1-.3.9.5c-.1.6.2,1.7-.9,1.7s-2.6,0-3.9,0"/>
  <path class="st0" d="M179.8,39.6h-3.7c-1.3,0-2.5-.9-2.5-2.2,0-.2,0-.4,0-.7.4-2.6.8-5.3,1.4-7.9.3-1.6,1.8-2.8,3.4-2.8,1.8,0,3.6,0,5.4,0,1.4,0,2.5.9,2.6,2.3,0,.3,0,.5,0,.8-.1.8-.3,1.6-.5,2.3-.4,1.7-1.9,2.8-3.6,2.8h-3.1c-.4,0-1.2.3-.9-.6.2-.6-.3-1.7,1-1.7h2.5c1.3,0,1.8-.8,1.8-2.9s-1-.9-1.6-.9q-4.2,0-5,4.1c-.2,1.1-.3,2.3-.6,3.4s.2,1.5,1.3,1.4c2,0,4,0,5.9,0,.4,0,1.3-.5,1.1.6-.1.7.1,1.8-1.3,1.7-1.2,0-2.4,0-3.7,0h0Z"/>
  <path class="st0" d="M145.9,60.7h-3.7c-1.4,0-2.6-.9-2.7-2.3,0-.3,0-.5,0-.8.4-2.5.8-5,1.3-7.5.3-1.7,1.8-3,3.5-3,1.8,0,3.6,0,5.4,0,1.3,0,2.5.9,2.6,2.2,0,.3,0,.5,0,.8-.1.8-.2,1.6-.4,2.4-.4,1.7-1.8,2.9-3.5,2.9h-3.2c-.4,0-1,.2-.9-.5s-.3-1.6.9-1.7c.8,0,1.7,0,2.5,0,1.1,0,1.5-.4,1.7-1.4.4-2.3.4-2.3-1.9-2.3h-2.4c-.7-.2-1.4.3-1.6,1,0,0,0,.2,0,.3-.3,2.1-.7,4.2-1.1,6.4-.2,1.1.1,1.4,1.2,1.4,2.1,0,4.1,0,6.2,0s1.1-.3.9.5c-.2.6.3,1.7-.9,1.7s-2.6,0-3.9,0"/>
  <path class="st0" d="M140.3,39.6h-3.7c-1.8,0-2.9-1.2-2.6-2.9.7-4.1,1.4-8.3,2.2-12.4.4-1.7,1.9-2.8,3.6-2.8h7.2c.4,0,1.1-.2.9.6-.1.6.2,1.6-1,1.6h-6c-1.1,0-1.7.4-1.9,1.5-.6,3.5-1.2,7-1.9,10.5-.3,1.3.2,1.6,1.4,1.6,1.9,0,3.8,0,5.6,0s1.1-.3.9.6c-.2.6.3,1.7-.9,1.7s-2.6,0-3.9,0"/>
  <path class="st0" d="M164.5,39.6h-3.2c-.4,0-1.2.3-1-.5.1-.6-.4-1.8,1-1.8h5.9c1.4-.2,2.4-1.5,2.3-2.9,0-.1,0-.3,0-.4-.2-.5-.7-.4-1.1-.4h-3.8c-2,0-2.9-1.1-2.7-3.1.3-3.3,1.7-4.5,4.9-4.5h4.9c.4,0,1.2-.3,1,.6-.1.6.3,1.8-1.1,1.7h-5.2c-1-.1-1.9.6-2,1.6,0,.2,0,.5,0,.7.1.6.6.6,1.1.6h3.8c2.1,0,3,1.2,2.7,3.3-.1.7-.2,1.4-.4,2.1-.4,1.7-1.9,3-3.6,3h-3.5"/>
  <path class="st0" d="M157.1,60.7h-3.2c-.4,0-1.2.3-1-.5.2-.6-.3-1.8,1-1.8h5.8c1.4,0,2.5-1.2,2.4-2.6,0-.2,0-.4-.1-.6-.2-.5-.6-.5-1-.5h-3.8c-2.1,0-3.1-1.1-2.8-3.2.5-3.4,1.6-4.3,5-4.3h4.8c.4,0,1.2-.3,1,.6-.1.7.2,1.7-1.1,1.7h-5.4c-1.1.1-1.9,1.1-1.8,2.2,0,.1,0,.2,0,.3.2.5.7.4,1.1.4h3.8c2,0,3,1.1,2.7,3.1-.1.9-.3,1.8-.5,2.7-.5,1.5-1.9,2.5-3.5,2.5h-3.4"/>
  <path class="st0" d="M127.3,47h1.1c2.5,0,3.4,1.1,3,3.5-.5,2.9-1,5.8-1.5,8.7-.2,1.6-1.4.9-2.2.9-1.1,0-.5-.9-.4-1.3.5-2.8,1-5.5,1.5-8.3.2-.9-.1-1.2-1.1-1.3-2.9-.1-2.9-.1-3.4,2.7-.5,2.6-1,5.1-1.4,7.7-.3,1.6-1.5.8-2.2.8-1,0-.4-.8-.3-1.1.4-2.6.9-5.2,1.4-7.7.7-4,1.5-4.7,5.5-4.7"/>
  <path class="st0" d="M128.7,39.6c-4.2,0-4.7-.6-4-4.7.5-3.1,1.1-6.3,1.7-9.4.5-1,1.6-1.4,2.6-1,.3.2.1.5,0,.8-.4,1.2.1,1.6,1.3,1.4.7,0,1.3,0,2,0,.5,0,1.4-.5,1.3.6,0,.8,0,1.8-1.4,1.7-1.2-.1-2.9-.6-3.6.2s-.6,2.4-.8,3.6-.4,2.2-.6,3.3c-.2.8.1,1.1.9,1.1h2.8c.4,0,1-.2.9.5s.3,1.6-.9,1.8c-.7,0-1.4,0-2.1,0"/>
  <path class="st2" d="M5.9,44.8c0-.7.4-1.4,1.2-1.5,0,0,0,0,0,0,.7-.1,1.4.3,1.5,1,0,0,0,0,0,.1.9,4.9,3.8,8.5,7.9,11.1.7.3,1,1.2.7,1.9-.3.7-1.2,1-1.9.7,0,0-.1,0-.2-.1-4.8-2.7-8.2-7.4-9.2-12.8v-.4"/>
  <path class="st0" d="M135.1,47c3.2,0,4,.9,3.4,4.1-.5,2.8-1,5.6-1.5,8.4-.5,1-1.6,1.4-2.6,1-.4-.3-.1-.7,0-1,.5-2.9,1-5.8,1.5-8.7.2-1.2,0-1.7-1.3-1.5-.1,0-.3,0-.4,0-.5-.2-1.4.5-1.3-.6,0-.9,0-2,1.5-1.7.2,0,.5,0,.7,0"/>
  <path class="st4" d="M142.8,31.3c-.6,0-1.1,0-1.7,0-.5-.1-1.5.6-1.4-.6,0-.9.1-1.8,1.6-1.7s2.7,0,4.1,0,1.2-.2,1,.7c-.1.6.2,1.6-1,1.6h-2.5"/>
</svg>